<svg xmlns="http://www.w3.org/2000/svg" xmlns:xlink="http://www.w3.org/1999/xlink" width="1034" height="1034" viewBox="0 0 1034 1034"><defs><clipPath id="a"><circle cx="517" cy="517" r="517" transform="translate(166 12)" fill="#fff" stroke="#707070" stroke-width="1"/></clipPath><linearGradient id="b" x1="0.994" y1="-0.006" x2="0" y2="1.001" gradientUnits="objectBoundingBox"><stop offset="0" stop-color="#ffb8fe"/><stop offset="1" stop-color="#fdaef2"/></linearGradient><linearGradient id="c" x1="0.5" x2="0.5" y2="1" gradientUnits="objectBoundingBox"><stop offset="0" stop-color="#657eee"/><stop offset="1" stop-color="#004961"/></linearGradient><linearGradient id="d" x1="0.5" x2="0.5" y2="1" gradientUnits="objectBoundingBox"><stop offset="0" stop-color="#4cc1ec"/><stop offset="1" stop-color="#1ab1cc"/></linearGradient><linearGradient id="e" x1="0.5" x2="0.5" y2="1" gradientUnits="objectBoundingBox"><stop offset="0" stop-color="#3b52d5"/><stop offset="1" stop-color="#01526a"/></linearGradient><linearGradient id="f" x1="0.5" x2="0.5" y2="1" gradientUnits="objectBoundingBox"><stop offset="0" stop-color="#7406f7"/><stop offset="1" stop-color="#03023c"/></linearGradient></defs><g transform="translate(-166 -12)" clip-path="url(#a)"><g transform="translate(-361.892 -176.682) rotate(4.012)"><rect width="327.656" height="1098.825" transform="matrix(0.643, -0.766, 0.766, 0.643, 802.137, 141.967)" fill="url(#b)"/><rect width="178.474" height="1038.571" transform="matrix(0.766, 0.643, -0.643, 0.766, 1581.419, 367.823)" fill="url(#c)"/><rect width="178.474" height="1096.392" transform="matrix(0.643, -0.766, 0.766, 0.643, 346.502, 686.598)" fill="#0987ad"/><rect width="178.474" height="1037.455" transform="matrix(0.766, 0.643, -0.643, 0.766, 1716.376, 481.588)" fill="url(#d)"/><rect width="178.474" height="1096.392" transform="matrix(0.643, -0.766, 0.766, 0.643, 460.229, 550.526)" fill="url(#e)"/><path d="M67.371,795.51,294.915,524.334,0,276.871,229.949,2.829,524.864,250.293,734.883,0l274.042,229.949L798.906,480.241l.151.126L569.108,754.41l-.151-.126L341.414,1025.458Z" transform="translate(573.341 138.699)" fill="url(#f)"/></g></g></svg>